<?xml version="1.0" encoding="utf-8"?>
<!-- Generator: Adobe Illustrator 25.0.1, SVG Export Plug-In . SVG Version: 6.00 Build 0)  -->
<svg version="1.1" id="Réteg_1" xmlns="http://www.w3.org/2000/svg" xmlns:xlink="http://www.w3.org/1999/xlink" x="0px" y="0px"
	 viewBox="0 0 50 50" style="enable-background:new 0 0 50 50;" xml:space="preserve">
<style type="text/css">
	.st0{fill-rule:evenodd;clip-rule:evenodd;fill:#FFFFFF;}
</style>
<g id="Layer_13">
</g>
<g id="Layer_12">
</g>
<g id="Layer_11">
</g>
<g id="Layer_10">
</g>
<g id="Layer_9">
</g>
<g id="Layer_8">
</g>
<g id="Layer_7">
</g>
<g id="Layer_6">
</g>
<g id="Layer_5">
</g>
<g id="Layer_4">
	<path class="st0" d="M39.8,15.5c-3.4-0.7-6.7-2-9.1-4.1c-2-1.8-3.1-4.4-3.4-7c2.8-0.5,5.3,0.4,7.4,2.2
		C36.9,8.5,38.7,11.6,39.8,15.5 M13.5,32.9c2.3,0.1,4.6,0.5,5.9,2.6c2.4,3.7-0.2,9-3.8,10.7c-4.2,2.1-9.3,0.4-11.5-3.8
		c-1.5-2.9-1.1-6.6,1-9.1C7.6,30.3,10.7,30.6,13.5,32.9z M33.1,48.8c5.6,2.8,12.5,0.5,15.3-5.1c2.1-4,1.5-8.9-1.4-12.3
		c-2.6-3.1-6.7-4.2-10.3-2.2c-1.1-3.2-2.4-6.1-3.8-9c-0.8-1.7-1.6-3.4-2.3-5.2c4,2.6,8.3,3.3,12.9,4c-1.1-5.5-2.5-10.8-7-14.7
		c-2.8-2.4-6.1-3.5-9.8-2.8L26.4,0h-2.9c-1.3,8.9-4,14.7-6.6,20.2c-1.3,2.9-2.7,5.8-3.8,9c-3.6-2-7.7-0.9-10.3,2.2
		C0,34.9-0.5,39.7,1.5,43.8c2.9,5.6,9.7,7.8,15.3,5.1c5.2-2.6,8.3-9.8,4.9-14.9c-1.3-2.1-3.5-3.2-5.9-3.7c1.1-3.1,2.4-5.9,3.7-8.8
		c1.9-4.1,3.8-8.3,5.3-13.7c1.5,4.7,3.4,9.2,5.4,13.7c1.3,2.9,2.6,5.7,3.7,8.8c-2.4,0.4-4.5,1.6-5.9,3.7
		C24.9,39,27.9,46.3,33.1,48.8z M43.7,34.2c-1.7-2-3.9-2.1-5.9-0.5l1.7,2c0.9-0.7,1.5-0.7,2.3,0.2c0.6,0.8,1.1,1.8,1.1,2.9l2.6,0.1
		C45.4,37.2,44.8,35.5,43.7,34.2z M10.5,35.7l1.7-2c-1.9-1.6-4.2-1.5-5.9,0.5c-1.1,1.3-1.7,3-1.7,4.6l2.6-0.1c0-1,0.4-2.1,1.1-2.9
		C9,35,9.6,35,10.5,35.7z M36.5,32.9c3-2.5,6.2-2.6,8.6,0.9c1.9,2.6,2.2,5.8,0.7,8.6c-2.1,4.1-7.3,5.8-11.5,3.8
		c-3.6-1.8-6.2-7-3.8-10.7C32,33.4,34.3,33,36.5,32.9z"/>
</g>
<g id="Layer_3">
</g>
<g id="Layer_2">
</g>
</svg>
