<?xml version="1.0" encoding="utf-8"?>
<!-- Generator: Adobe Illustrator 25.0.1, SVG Export Plug-In . SVG Version: 6.00 Build 0)  -->
<svg version="1.1" id="Réteg_1" xmlns="http://www.w3.org/2000/svg" xmlns:xlink="http://www.w3.org/1999/xlink" x="0px" y="0px"
	 viewBox="0 0 24 24" style="enable-background:new 0 0 24 24;" xml:space="preserve">
<style type="text/css">
	.st0{fill:#FFFFFF;}
</style>
<g id="Layer_2">
	<path class="st0" d="M12,2C6.5,2,2,6.5,2,12s4.5,10,10,10s10-4.5,10-10S17.5,2,12,2z M12.9,4.1c1.5,0.2,2.8,0.7,4,1.6L12,10.6
		l-1.3-1.3C12,7.8,12.7,6,12.9,4.1z M9.3,7.9L7.1,5.7c1.1-0.9,2.4-1.4,3.8-1.6C10.7,5.5,10.2,6.8,9.3,7.9z M7.9,9.3
		c-1.1,0.9-2.4,1.4-3.8,1.6c0.2-1.4,0.7-2.7,1.6-3.8L7.9,9.3z M9.3,10.7l1.3,1.3l-4.9,4.9c-0.9-1.2-1.5-2.5-1.6-4
		C6,12.7,7.8,12,9.3,10.7L9.3,10.7z M12,13.4l1.3,1.3c-1.2,1.5-2,3.3-2.2,5.3c-1.5-0.2-2.8-0.7-4-1.6L12,13.4z M14.7,16.1l2.2,2.2
		c-1.1,0.9-2.4,1.4-3.8,1.6C13.3,18.5,13.8,17.2,14.7,16.1z M16.1,14.7c1.1-0.9,2.4-1.4,3.8-1.6c-0.2,1.4-0.7,2.7-1.6,3.8L16.1,14.7
		z M14.7,13.3L13.4,12l4.9-4.9c0.9,1.2,1.5,2.5,1.6,4C18,11.3,16.2,12,14.7,13.3L14.7,13.3z"/>
</g>
</svg>
